<?xml version="1.0" standalone="no"?>
<!DOCTYPE svg PUBLIC "-//W3C//DTD SVG 20010904//EN"
 "http://www.w3.org/TR/2001/REC-SVG-20010904/DTD/svg10.dtd">
<svg version="1.0" xmlns="http://www.w3.org/2000/svg"
 width="190.000000pt" height="190.000000pt" viewBox="0 0 190.000000 190.000000"
 preserveAspectRatio="xMidYMid meet">

<g transform="translate(0.000000,190.000000) scale(0.100000,-0.100000)"
fill="#000000" stroke="none">
<path d="M0 950 l0 -950 950 0 950 0 0 270 c0 149 -2 270 -5 270 -3 0 -111
-88 -240 -195 -129 -108 -247 -200 -261 -205 -41 -16 -81 -12 -186 21 -85 26
-109 29 -176 25 -42 -3 -156 -8 -252 -11 -96 -3 -218 -8 -270 -11 -89 -5 -166
6 -130 19 8 3 206 28 440 56 234 29 443 56 464 61 25 5 46 5 58 -1 12 -6 48
-6 106 2 81 11 90 15 128 51 37 35 43 48 59 123 15 72 16 93 5 147 -11 58 -16
67 -65 108 -62 52 -52 60 40 31 58 -18 60 -20 65 -56 5 -38 6 -39 104 -80 54
-23 102 -48 107 -56 5 -8 9 267 9 659 l0 672 -950 0 -950 0 0 -950z m487 734
c-3 -3 -12 -4 -19 -1 -8 3 -5 6 6 6 11 1 17 -2 13 -5z m-54 -11 c-7 -2 -19 -2
-25 0 -7 3 -2 5 12 5 14 0 19 -2 13 -5z m-193 -38 c-110 -23 -149 -34 -135
-40 11 -4 36 -14 55 -22 19 -8 134 -52 255 -98 291 -111 281 -107 270 -111 -6
-2 -141 44 -300 102 -160 58 -305 111 -324 118 -27 10 -31 15 -20 22 18 11
284 62 324 62 17 0 -40 -15 -125 -33z m1103 -4 c10 -4 -120 -34 -300 -70 -175
-35 -327 -65 -338 -67 -11 -2 -31 4 -44 14 -23 19 -22 19 195 71 121 29 233
57 249 61 31 9 207 2 238 -9z m105 -110 c34 -111 -6 -149 -265 -248 -8 -3 -13
2 -13 13 0 10 -10 28 -21 40 l-21 23 106 52 c59 28 105 53 103 55 -2 3 -64
-18 -138 -46 -73 -28 -185 -66 -248 -86 -63 -19 -117 -37 -120 -39 -2 -3 10
-5 27 -5 24 0 35 -7 52 -35 12 -20 20 -41 17 -48 -5 -13 -146 -71 -154 -63
-12 11 22 49 60 67 l42 19 -47 -6 -48 -5 0 31 c0 17 -7 44 -15 60 -9 17 -14
30 -13 30 2 0 154 52 338 115 184 62 338 114 341 114 3 1 11 -16 17 -38z
m-993 -116 c133 -47 247 -85 253 -85 6 0 16 -9 23 -21 13 -24 14 -25 -115 22
-44 16 -85 29 -90 28 -6 0 42 -27 107 -60 88 -44 117 -64 117 -78 0 -29 -11
-51 -24 -51 -6 0 -74 25 -150 56 -76 30 -140 53 -142 51 -2 -1 62 -32 142 -68
80 -36 146 -69 146 -74 -1 -32 -38 -23 -231 59 -112 48 -205 85 -207 83 -3 -2
91 -48 209 -101 188 -85 216 -95 242 -87 39 12 135 20 135 11 0 -4 -33 -21
-74 -38 l-74 -30 -179 83 c-98 45 -245 114 -327 153 -81 40 -152 69 -157 66
-5 -3 -9 0 -9 6 0 8 79 50 95 50 2 0 1 -10 -2 -22 -4 -23 -4 -23 12 -3 24 28
45 80 45 110 0 14 3 25 7 25 4 0 116 -38 248 -85z m579 -100 c-4 -9 3 -16 20
-21 21 -5 26 -12 26 -39 0 -18 5 -35 11 -37 8 -3 4 -18 -10 -46 -11 -22 -21
-55 -21 -72 0 -52 -20 -115 -46 -146 -27 -31 -27 -27 -6 44 9 26 8 32 -4 32
-19 0 -19 1 21 80 34 68 34 70 15 80 -16 9 -18 15 -10 30 14 25 13 27 -12 33
-14 4 -29 0 -40 -10 -14 -13 -18 -13 -18 -2 0 8 -3 25 -7 38 -4 16 -3 22 5 17
6 -3 26 3 44 14 39 24 39 24 32 5z m346 -95 c-8 -5 -22 -9 -30 -9 -10 0 -8 3
5 9 27 12 43 12 25 0z m168 -19 c31 -10 56 -21 55 -26 -2 -9 -442 -136 -457
-132 -5 2 23 32 62 67 56 51 87 71 144 91 78 28 100 28 196 0z m-1282 -23 c4
-6 3 -8 -2 -5 -6 3 -16 1 -24 -4 -11 -8 -7 -9 17 -7 18 3 30 1 27 -4 -3 -4 45
-32 105 -63 104 -52 145 -68 111 -44 -13 9 -13 10 0 6 8 -2 15 -9 15 -16 0 -7
11 -19 25 -26 31 -18 43 -19 34 -3 -4 6 -3 9 2 6 5 -3 39 -20 76 -37 l68 -31
89 44 88 45 -5 -47 c-3 -26 -11 -52 -18 -59 -20 -21 -46 -150 -34 -173 5 -10
8 -25 5 -32 -3 -8 7 -26 23 -41 25 -24 32 -26 56 -17 15 5 33 10 39 9 7 0 -5
-7 -27 -15 -35 -13 -41 -12 -66 6 -16 11 -34 36 -40 55 -16 48 -3 140 26 194
13 24 24 57 24 72 l0 29 -69 -35 c-77 -38 -85 -46 -76 -75 6 -19 6 -19 38 0
40 25 51 25 42 3 -4 -10 -8 -26 -10 -35 -2 -9 -9 -27 -16 -39 -7 -14 -9 -43
-6 -75 l5 -53 -39 14 c-51 18 -51 1 0 -25 28 -14 41 -16 43 -8 3 7 7 3 10 -9
l6 -22 -49 24 c-62 32 -82 74 -77 163 2 34 2 62 0 62 -8 0 -32 -72 -32 -99 0
-37 -13 -46 -32 -23 -26 29 -30 82 -12 140 15 46 15 55 3 63 -23 14 -30 10
-19 -11 12 -23 1 -45 -35 -72 -23 -17 -25 -17 -102 28 -94 55 -173 129 -173
161 0 13 -4 23 -8 23 -13 0 -43 -36 -36 -43 3 -3 3 -11 -1 -17 -12 -19 -34 21
-35 62 0 31 5 40 28 52 33 19 29 18 38 4z m946 -18 c-53 -25 -65 -35 -82 -72
-29 -63 -27 -71 18 -65 l37 6 -40 -13 c-50 -16 -54 -6 -28 66 17 47 23 53 78
80 33 15 65 28 70 28 6 -1 -18 -14 -53 -30z m473 9 l20 0 -20 -9 c-27 -12 -47
-12 -40 -1 3 5 0 11 -7 14 -7 2 -4 3 7 1 11 -2 29 -4 40 -5z m-723 -116 c-18
-65 -19 -77 -7 -141 8 -39 19 -81 25 -94 l11 -23 -20 23 c-49 56 -54 126 -20
280 10 49 15 60 22 45 5 -12 1 -45 -11 -90z m665 91 c-3 -3 -12 -4 -19 -1 -8
3 -5 6 6 6 11 1 17 -2 13 -5z m-1147 -79 c0 -3 -31 11 -70 30 -38 19 -70 38
-70 40 0 3 32 -11 70 -30 39 -19 70 -38 70 -40z m1095 66 c-11 -5 -36 -11 -55
-14 -35 -6 -34 -6 5 8 43 14 84 19 50 6z m-1400 -28 c-36 -13 -37 -20 -10 -62
35 -52 41 -53 15 -2 -12 25 -16 42 -10 46 6 3 10 -2 10 -12 0 -29 36 -81 62
-88 13 -4 43 -24 68 -45 25 -20 78 -60 119 -88 l74 -52 -54 1 c-45 1 -49 3
-20 8 l33 6 -76 55 c-134 97 -181 129 -184 126 -1 -2 18 -36 43 -77 25 -40 45
-77 45 -82 0 -5 43 -77 96 -159 54 -86 92 -154 87 -159 -9 -9 -216 318 -213
335 1 5 -3 12 -8 15 -15 10 -153 223 -148 229 8 7 71 19 76 14 3 -3 1 -6 -5
-9z m1302 1 c-3 -3 -12 -4 -19 -1 -8 3 -5 6 6 6 11 1 17 -2 13 -5z m-52 -14
c-11 -5 -27 -9 -35 -9 -9 0 -8 4 5 9 11 5 27 9 35 9 9 0 8 -4 -5 -9z m-58 -16
c-3 -3 -12 -4 -19 -1 -8 3 -5 6 6 6 11 1 17 -2 13 -5z m-38 -8 c-7 -7 -131
-37 -136 -33 -2 3 22 11 54 20 59 15 90 20 82 13z m201 -35 c0 -40 -21 -58
-101 -86 -46 -16 -79 -30 -73 -32 5 -2 48 5 96 16 70 15 90 16 104 7 21 -16
51 -4 -314 -127 -162 -55 -302 -104 -312 -109 -19 -10 -70 5 -70 21 0 11 119
49 135 42 9 -3 15 1 15 9 0 10 31 24 90 42 50 16 93 33 97 39 4 6 0 8 -8 5
-38 -14 -170 -41 -175 -35 -4 3 2 21 13 39 17 30 22 32 62 29 37 -2 43 0 37
13 -3 9 -9 22 -12 30 -4 10 14 18 73 31 43 9 132 30 198 45 139 32 145 33 145
21z m-1112 -113 l127 -87 6 34 c9 54 17 52 11 -2 -2 -26 -5 -49 -6 -49 -5 -5
-271 190 -272 199 0 7 1 8 3 2 2 -5 61 -49 131 -97z m1173 57 c5 4 17 1 26 -5
15 -9 14 -10 -7 -5 l-25 6 24 -20 c13 -12 18 -21 12 -21 -15 0 -51 37 -50 53
0 9 2 9 6 -1 2 -6 9 -10 14 -7z m105 -37 c27 -12 44 -23 38 -25 -6 -2 -31 8
-55 22 -54 31 -47 32 17 3z m-1375 -243 c91 -146 140 -215 152 -215 37 0 17
-62 -41 -122 -35 -37 -36 -38 -11 -38 13 0 56 -9 94 -20 38 -11 83 -18 100
-15 16 3 165 16 330 30 254 21 307 28 348 47 39 18 53 20 76 11 42 -15 154 3
179 30 17 20 46 87 38 87 -2 0 -18 -22 -36 -50 l-32 -50 -92 2 -91 2 87 3 88
4 41 61 c38 56 41 64 35 107 -3 25 -15 54 -25 65 -18 18 -25 18 -108 7 -48 -7
-122 -14 -163 -16 -41 -2 -205 -19 -365 -38 -159 -20 -317 -38 -351 -42 l-61
-7 -60 84 c-60 84 -133 191 -148 218 -19 35 18 -13 110 -145 54 -77 99 -141
100 -143 3 -3 286 29 305 35 10 3 2 11 -24 25 -36 18 -48 19 -163 11 -69 -4
-128 -6 -132 -3 -4 3 -30 37 -57 75 -63 89 -70 100 -56 91 6 -4 35 -40 63 -81
l51 -75 52 1 c28 0 86 4 129 8 71 6 83 4 119 -16 53 -30 91 -29 207 6 93 29
331 63 417 60 22 -1 5 -5 -41 -10 -196 -22 -313 -39 -350 -53 -52 -19 -30 -19
118 -1 67 8 142 14 167 14 25 -1 86 5 137 12 l91 14 -39 28 c-25 18 -37 23
-33 13 8 -22 1 -20 -21 4 -18 20 -17 20 8 20 17 0 43 -17 80 -52 47 -45 56
-60 62 -101 7 -54 -23 -163 -53 -190 -24 -21 -146 -39 -180 -26 -21 8 -36 6
-72 -10 -37 -17 -107 -26 -380 -51 -184 -16 -382 -35 -438 -41 -57 -6 -105 -9
-106 -7 -11 13 -306 600 -306 607 0 5 11 12 24 15 13 3 32 9 43 13 17 7 17 6
0 -20 l-17 -26 109 -208 c60 -114 116 -217 125 -228 18 -24 -108 261 -159 360
l-37 70 36 -40 37 -40 -31 62 c-16 34 -27 69 -24 77 3 9 7 16 8 16 2 0 63 -97
137 -215z m1300 184 c-30 -11 -64 -16 -75 -13 -20 7 -20 7 3 16 13 4 33 6 44
2 11 -3 17 -2 14 3 -3 5 11 9 31 10 36 1 35 0 -17 -18z m-702 -31 c15 -46 14
-52 -14 -60 -24 -6 -25 -4 -25 36 0 65 21 77 39 24z m611 12 c8 -5 11 -10 5
-10 -5 0 -17 5 -25 10 -8 5 -10 10 -5 10 6 0 17 -5 25 -10z m-30 -10 c11 -8 7
-9 -15 -4 -19 3 -25 2 -17 -3 17 -13 -85 -44 -118 -37 -21 5 -22 4 -10 -6 13
-10 12 -11 -3 -6 -10 3 -24 6 -30 7 -7 0 5 7 27 15 21 7 50 11 65 8 21 -4 23
-3 11 5 -12 9 -8 10 15 5 21 -4 26 -3 16 4 -11 8 -10 11 5 15 31 8 38 7 54 -3z
m-197 -59 c12 -4 -35 -23 -149 -59 -91 -29 -168 -51 -170 -49 -2 2 30 14 72
27 58 18 71 26 57 32 -11 5 -4 6 17 2 27 -4 32 -3 20 6 -12 8 -10 9 10 5 14
-3 37 -2 50 4 22 8 22 10 5 11 -14 1 -10 5 15 15 40 16 48 16 73 6z m-709 -32
c21 -6 55 -28 76 -49 l38 -39 -90 -3 -89 -3 -29 47 c-26 41 -27 47 -12 51 31
8 67 7 106 -4z m796 -38 c0 -11 -52 -21 -109 -20 l-46 1 40 13 c47 15 115 19
115 6z m94 -141 c38 -14 50 -44 35 -88 -6 -20 -15 -41 -20 -46 -14 -16 -151
-38 -259 -42 -176 -7 -693 -34 -729 -39 -31 -4 -32 -3 -17 14 12 14 56 23 191
41 95 13 172 26 170 29 -1 3 -77 1 -167 -5 -89 -6 -164 -10 -166 -9 -1 1 2 13
6 26 9 24 15 25 453 75 520 61 471 56 503 44z m-654 -231 c-151 -16 -295 -28
-320 -26 -51 2 468 55 545 55 28 -1 -74 -13 -225 -29z"/>
<path d="M1368 803 c7 -3 16 -2 19 1 4 3 -2 6 -13 5 -11 0 -14 -3 -6 -6z"/>
<path d="M1245 770 c-13 -5 -14 -9 -5 -9 8 0 24 4 35 9 13 5 14 9 5 9 -8 0
-24 -4 -35 -9z"/>
</g>
</svg>
